<svg xmlns="http://www.w3.org/2000/svg" xmlns:xlink="http://www.w3.org/1999/xlink" width="500" zoomAndPan="magnify" viewBox="0 0 375 374.999991" height="500" preserveAspectRatio="xMidYMid meet" version="1.0"><defs><clipPath id="3b2d3c19d1"><path d="M 33.246094 9.429688 L 341.496094 9.429688 L 341.496094 365.679688 L 33.246094 365.679688 Z M 33.246094 9.429688 " clip-rule="nonzero"/></clipPath></defs><rect x="-37.5" width="450" fill="#ffffff" y="-37.499999" height="449.999989" fill-opacity="1"/><rect x="-37.5" width="450" fill="#ffffff" y="-37.499999" height="449.999989" fill-opacity="1"/><g clip-path="url(#3b2d3c19d1)"><path fill="#000000" d="M 187.5 9.429688 L 33.292969 98.460938 L 33.292969 276.527344 L 187.5 365.5625 L 341.703125 276.527344 L 341.703125 98.460938 Z M 187.5 38.84375 L 316.207031 113.132812 L 316.207031 165.839844 L 187.5 91.550781 L 92.410156 146.46875 L 233.15625 227.738281 L 187.5 254.089844 L 58.792969 179.800781 L 58.792969 113.207031 Z M 187.5 120.898438 L 316.207031 195.1875 L 316.207031 261.785156 L 187.5 336.144531 L 58.792969 261.785156 L 58.792969 209.074219 L 187.5 283.367188 L 282.585938 228.519531 L 141.84375 147.25 Z M 187.5 120.898438 " fill-opacity="1" fill-rule="nonzero"/></g></svg>