<svg xmlns="http://www.w3.org/2000/svg" xmlns:xlink="http://www.w3.org/1999/xlink" width="500" zoomAndPan="magnify" viewBox="0 0 375 374.999991" height="500" preserveAspectRatio="xMidYMid meet" version="1.0"><defs><clipPath id="408fdf16d3"><path d="M 54 41.023438 L 371.328125 41.023438 L 371.328125 122 L 54 122 Z M 54 41.023438 " clip-rule="nonzero"/></clipPath><clipPath id="dea0335735"><path d="M 3.828125 253 L 321 253 L 321 334 L 3.828125 334 Z M 3.828125 253 " clip-rule="nonzero"/></clipPath></defs><g clip-path="url(#408fdf16d3)"><path fill="#1f2222" d="M 114.757812 41.023438 L 371.066406 41.023438 L 311.261719 121.9375 L 54.953125 121.9375 Z M 114.757812 41.023438 " fill-opacity="1" fill-rule="evenodd"/></g><path fill="#000000" d="M 54.953125 121.9375 L 183.105469 121.9375 L 118.253906 209.304688 L 61.945312 131.617188 Z M 54.953125 121.9375 " fill-opacity="1" fill-rule="evenodd"/><g clip-path="url(#dea0335735)"><path fill="#1f2222" d="M 260.257812 333.96875 L 3.953125 333.96875 L 63.886719 253.050781 L 320.191406 253.050781 Z M 260.257812 333.96875 " fill-opacity="1" fill-rule="evenodd"/></g><path fill="#000000" d="M 320.191406 253.050781 L 192.039062 253.050781 L 256.761719 165.683594 L 313.199219 243.371094 Z M 320.191406 253.050781 " fill-opacity="1" fill-rule="evenodd"/></svg>